<svg width="34" height="34" viewBox="0 0 34 34" fill="none" xmlns="http://www.w3.org/2000/svg">
<path fill-rule="evenodd" clip-rule="evenodd" d="M28.194 14.133C29.507 20.5857 25.3405 26.881 18.8878 28.194C12.4351 29.507 6.13973 25.3405 4.82673 18.8878C3.51373 12.4351 7.68028 6.13971 14.133 4.82672C20.5857 3.51372 26.881 7.68027 28.194 14.133ZM29.174 13.9336C30.5971 20.9275 26.0811 27.7508 19.0872 29.1739C12.0933 30.5971 5.26993 26.0811 3.84681 19.0872C2.42369 12.0933 6.93969 5.26992 13.9336 3.8468C20.9275 2.42367 27.7508 6.93968 29.174 13.9336ZM18.0135 23.8974C22.0932 23.0672 24.7276 19.0869 23.8974 15.0072C23.0673 10.9274 19.087 8.29306 15.0072 9.12322C10.9274 9.95337 8.29309 13.9337 9.12324 18.0134C9.9534 22.0932 13.9337 24.7275 18.0135 23.8974Z" fill="#EF4E35"/>
</svg>
